#N canvas 202 184 843 469 10;
#X obj 524 140 inlet~;
#X obj 524 174 phasor~;
#X obj 612 159 inlet~;
#X obj 524 240 outlet~;
#X text 590 139 modulation index;
#X text 685 118 delay (samples);
#X obj 701 138 inlet~;
#X obj 701 160 /~ 44.1;
#X text 496 118 carrier frequencey;
#N canvas 0 23 785 480 feedbackLoop 1;
#X obj 441 108 inlet~;
#X obj 519 127 inlet~;
#X text 497 107 modulation index;
#X obj 615 106 inlet~;
#X text 599 86 delay (milliseconds);
#X text 413 86 incoming signal;
#X obj 135 299 block~;
#X msg 135 276 1;
#X obj 135 254 loadbang;
#X obj 441 277 +~;
#X obj 449 332 send~ \$0-feedbackLoop;
#X obj 456 174 receive~ \$0-feedbackLoop;
#X obj 456 255 *~, f 11;
#X obj 441 311 cos~;
#N canvas 0 23 450 300 delayWrite 0;
#X obj 118 72 inlet~;
#X text 114 51 signal;
#X obj 118 144 outlet~;
#X text 34 168 dummy throughput for forcing correct execution order
;
#X obj 140 107 delwrite~ \$0-feedbackDelay 5000;
#X connect 0 0 2 0;
#X connect 0 0 4 0;
#X restore 456 197 pd delayWrite;
#N canvas 0 23 450 300 delayRead 1;
#X obj 145 131 outlet~;
#X obj 145 66 inlet~;
#X obj 145 96 delread4~ \$0-feedbackDelay;
#X text 135 48 delay time in milliseconds;
#X obj 60 51 inlet~;
#X text 8 12 dummy input for forcing correct execution order, f 27
;
#X connect 1 0 2 0;
#X connect 2 0 0 0;
#X restore 456 220 pd delayRead;
#X text 28 219 sets a block size of 1 (for this subpatch) \, meaning
send~ and receive~ only incur a delay of 1 sample.;
#X obj 441 352 outlet~, f 30;
#X connect 0 0 9 0;
#X connect 1 0 12 1;
#X connect 3 0 15 1;
#X connect 7 0 6 0;
#X connect 8 0 7 0;
#X connect 9 0 13 0;
#X connect 11 0 14 0;
#X connect 12 0 9 1;
#X connect 13 0 10 0;
#X connect 13 0 17 0;
#X connect 14 0 15 0;
#X connect 15 0 12 0;
#X restore 524 212 pd feedbackLoop;
#X text 77 48 'feedback' or 'recursive' phase modulation. Avoids triggering
a dsp loop by abusing the behaviour of send~ and receive~ operating
on a one block delay by default. Delay is then added using delread4~
on the sample level \, with the delwrite~ and delread4~ wrapped in
subpatches and connected with a dummy audio signal to force the write
to evaluate before the read.;
#X connect 0 0 1 0;
#X connect 1 0 9 0;
#X connect 2 0 9 1;
#X connect 6 0 7 0;
#X connect 7 0 9 2;
#X connect 9 0 3 0;
