#N canvas 40 93 663 518 10;
#X obj 163 123 inlet~;
#X obj 100 143 inlet~;
#X obj 347 123 inlet~;
#X obj 100 173 phasor~;
#X obj 100 378 cos~;
#X obj 100 356 +~;
#X obj 100 423 outlet~;
#X obj 163 173 osc~;
#X obj 247 143 inlet~;
#X obj 163 265 *~;
#X obj 347 265 *~;
#X obj 163 317 *~;
#X text 74 125 carrier freq;
#X text 146 105 modulator freq;
#X text 302 103 optional modulator input;
#X text 222 125 modulation index;
#X obj 477 143 inlet~;
#X text 399 124 toggle (0=internal mod \, 1=external mod);
#X obj 251 226 *~ -1;
#X obj 251 248 +~ 1;
#X text 147 40 pm (phase modulated) oscillator with signal level controls
;
#X connect 0 0 7 0;
#X connect 1 0 3 0;
#X connect 2 0 10 0;
#X connect 3 0 5 0;
#X connect 4 0 6 0;
#X connect 5 0 4 0;
#X connect 7 0 9 0;
#X connect 8 0 11 1;
#X connect 9 0 11 0;
#X connect 10 0 11 0;
#X connect 11 0 5 1;
#X connect 16 0 10 1;
#X connect 16 0 18 0;
#X connect 18 0 19 0;
#X connect 19 0 9 1;
