#N canvas 587 84 459 376 10;
#X obj 91 51 inlet~;
#X obj 91 283 osc~, f 25;
#X obj 91 263 *~;
#X obj 91 304 outlet~;
#X obj 238 51 inlet;
#X obj 119 121 random 1000;
#X obj 119 142 - 500;
#X obj 119 163 / 100000;
#X obj 119 78 loadbang;
#X obj 119 247 line~;
#X obj 119 205 + 1;
#X obj 119 99 metro 50;
#X msg 119 226 \$1 50;
#X obj 200 51 inlet;
#X obj 119 184 *, f 14;
#X text 43 29 base frequency;
#X text 153 29 fluctuation mult (>=0);
#X text 277 50 set phase;
#X connect 0 0 2 0;
#X connect 1 0 3 0;
#X connect 2 0 1 0;
#X connect 4 0 1 1;
#X connect 5 0 6 0;
#X connect 6 0 7 0;
#X connect 7 0 14 0;
#X connect 8 0 11 0;
#X connect 9 0 2 1;
#X connect 10 0 12 0;
#X connect 11 0 5 0;
#X connect 12 0 9 0;
#X connect 13 0 14 1;
#X connect 14 0 10 0;
