#N canvas 102 251 450 300 10;
#X obj 57 90 f \$1;
#X text 17 19 fundamental;
#X obj 57 68 loadbang;
#X obj 57 112 + 1;
#X text 88 90 sets multiplier to the number of this cloned abstraction
;
#X obj 197 208 *~;
#X obj 197 230 outlet~;
#X text 198 19 amplification factor (0-1);
#X obj 42 134 *~;
#X obj 42 41 inlet~;
#X obj 212 41 inlet;
#X msg 212 142 \$1 20;
#X obj 212 163 line~;
#X obj 42 176 uoscil/headless/randosc, f 26;
#X obj 118 41 inlet;
#X text 104 19 detune factor;
#X connect 0 0 3 0;
#X connect 2 0 0 0;
#X connect 3 0 8 1;
#X connect 5 0 6 0;
#X connect 8 0 13 0;
#X connect 9 0 8 0;
#X connect 10 0 11 0;
#X connect 11 0 12 0;
#X connect 12 0 5 1;
#X connect 13 0 5 0;
#X connect 14 0 13 1;
