#N canvas 0 23 543 410 10;
#X obj 111 346 outlet~;
#X text 143 34 additive sine wave generator (limited to the overtone
series);
#X obj 276 185 inlet;
#X text 57 143 set fundamental pitch;
#X text 143 18 CLONABLE VERSION;
#X text 223 160 takes a list of [overtone# overtoneAmp (;
#X obj 111 303 *~;
#X text 158 113 amplification factor;
#X obj 111 165 inlet~;
#X obj 202 134 inlet~;
#X text 143 64 creation argument \$1 sets the number of overtones;
#X obj 111 231 clone sineovertoneosc_osc \$1;
#X connect 2 0 11 1;
#X connect 6 0 0 0;
#X connect 8 0 11 0;
#X connect 9 0 6 1;
#X connect 11 0 6 0;
#X coords 0 410 1 409 210 170 0;
