#N canvas 359 23 607 672 10;
#X obj 49 485 +~, f 16;
#X obj 49 507 cos~;
#X obj 49 463 phasor~;
#X obj 49 134 inlet~;
#X obj 142 375 +~, f 23;
#X obj 142 397 cos~;
#X obj 142 353 phasor~;
#X obj 142 134 inlet~;
#X obj 142 442 *~, f 11;
#X obj 49 549 outlet~;
#X obj 205 134 inlet~;
#X obj 412 134 inlet~;
#X obj 463 134 inlet~;
#X obj 412 206 *~, f 9;
#X text 195 113 mod index;
#X text 458 113 mod index;
#X obj 277 275 +~, f 23;
#X obj 277 297 cos~;
#X obj 277 253 phasor~;
#X obj 277 134 inlet~;
#X obj 277 342 *~, f 11;
#X obj 340 134 inlet~;
#X text 340 113 mod index;
#X text 110 19 cascade fm with optional input. Gives an outlet for
every stage of the cascade.;
#X obj 152 419 outlet~;
#X obj 287 319 outlet~;
#X text 411 113 input~;
#X text 29 113 carrier freq;
#X text 258 113 carrier freq;
#X text 113 113 carrier freq;
#X connect 0 0 1 0;
#X connect 1 0 9 0;
#X connect 2 0 0 0;
#X connect 3 0 2 0;
#X connect 4 0 5 0;
#X connect 5 0 24 0;
#X connect 5 0 8 0;
#X connect 6 0 4 0;
#X connect 7 0 6 0;
#X connect 8 0 0 1;
#X connect 10 0 8 1;
#X connect 11 0 13 0;
#X connect 12 0 13 1;
#X connect 13 0 16 1;
#X connect 16 0 17 0;
#X connect 17 0 20 0;
#X connect 17 0 25 0;
#X connect 18 0 16 0;
#X connect 19 0 18 0;
#X connect 20 0 4 1;
#X connect 21 0 20 1;
